<?xml version="1.0" encoding="utf-8"?>
<!-- Generator: Adobe Illustrator 27.5.0, SVG Export Plug-In . SVG Version: 6.00 Build 0)  -->
<svg version="1.1" id="PRINT" xmlns="http://www.w3.org/2000/svg" xmlns:xlink="http://www.w3.org/1999/xlink" x="0px" y="0px"
	 viewBox="0 0 140 132.3" style="enable-background:new 0 0 140 132.3;" xml:space="preserve">
<style type="text/css">
	.st0{fill:#69EDCD;}
	.st1{fill:#4E56C0;}
</style>
<path class="st0" d="M87.2,11.7H53.8c-23.9,0-43.3,19.4-43.3,43.3v12.8c0,9.5,3.1,18.9,9,26.4l-8.9,32.9c-0.4,1.3,0.1,2.8,1.2,3.6
	c0.6,0.5,1.4,0.7,2.2,0.7c0.6,0,1.1-0.1,1.6-0.4l39.1-20h32.5c23.9,0,43.3-19.4,43.3-43.3V55.1C130.5,31.2,111,11.7,87.2,11.7z"/>
<path class="st1" d="M90,89.7c-0.2-1.1,0.1-2.2,1-2.9L110.8,70l-4.1-1.9c-1.8-0.8-1.3-1.9-0.7-4.5l3-11.6l-11.6,2.5
	c-1.1,0.2-1.8-0.5-1.9-1.2L94,47.9l-9.2,10.7c-1.3,1.7-4,1.7-3.1-2.2l4-21.6l-5.3,2.9c-1.4,0.8-3.6-0.5-3.6-0.5l-7.2-14.1l-7.2,14.1
	c-0.8,1.4-2.4,1.3-3.9,0.5l-5.1-2.9l3.9,21.6c0.8,4-1.8,4-3,2.2L45,47.9l-1.4,5.6c-0.1,0.6-1,1.4-2.1,1.2L30,52.2l3.1,11.6
	c0.5,2.5,1.1,3.5-0.6,4.3L28.3,70l19.8,16.8c0.8,0.6,1.2,1.8,1,2.9l-1.7,5.9c6.6-0.8,12.5-1.5,18.9-2.3v17.9h2.4H71h2.1V93.3
	c6.5,0.8,12.3,1.5,18.8,2.3L90,89.7z"/>
</svg>
