<?xml version="1.0" encoding="utf-8"?>
<!-- Generator: Adobe Illustrator 27.5.0, SVG Export Plug-In . SVG Version: 6.00 Build 0)  -->
<svg version="1.1" id="PRINT" xmlns="http://www.w3.org/2000/svg" xmlns:xlink="http://www.w3.org/1999/xlink" x="0px" y="0px"
	 viewBox="0 0 493.5 98.3" style="enable-background:new 0 0 493.5 98.3;" xml:space="preserve">
<style type="text/css">
	.st0{fill:#69EDCD;}
	.st1{fill:#FFFFFF;}
</style>
<path class="st0" d="M33,37.3c1,2.1,1.5,4.4,1.5,7s-0.5,4.9-1.5,7s-2.3,3.7-4,4.9c-3.3,2.5-6.7,3.8-10.2,3.8h-7.4v6.7
	c0,0.9,0,1.6-0.1,2c-0.1,0.5-0.2,1-0.6,1.6c-0.6,1.1-2.1,1.6-4.6,1.6c-2.8,0-4.4-0.7-4.9-2.2C1.1,68.9,1,67.9,1,66.5V33.7
	c0-0.9,0-1.6,0.1-2c0.1-0.5,0.2-1,0.6-1.6c0.6-1.1,2.1-1.6,4.6-1.6H19c3.5,0,6.8,1.3,10.1,3.8C30.7,33.5,32,35.2,33,37.3z
	 M22.4,48.1c1.1-0.9,1.7-2.2,1.7-3.9s-0.6-3-1.7-3.9c-1.1-0.9-2.3-1.3-3.5-1.3h-7.4v10.5H19C20.1,49.4,21.3,49,22.4,48.1z"/>
<path class="st0" d="M60.5,41c0.7,0.2,1.4,0.6,1.9,1.2c0.5,0.6,0.7,1.5,0.7,2.8s-0.4,2.6-1.1,4.1c-0.8,1.5-1.8,2.2-3.3,2.2
	c-0.7,0-1.4-0.2-2-0.5c-0.7-0.3-1.5-0.5-2.6-0.5s-2.1,0.4-3,1.1c-0.9,0.8-1.4,1.7-1.4,2.7v12.4c0,0.9,0,1.6-0.1,2s-0.2,1-0.6,1.6
	c-0.6,1-2.1,1.5-4.6,1.5c-1.9,0-3.3-0.3-4.1-1c-0.6-0.6-1-1.4-1.1-2.5c0-0.4,0-1,0-1.7V45.8c0-0.9,0-1.6,0.1-2
	c0.1-0.5,0.2-1,0.5-1.5c0.6-1.1,2.1-1.6,4.6-1.6c2.4,0,3.8,0.5,4.4,1.4c0.4,0.6,0.7,1.3,0.7,2c0.2-0.3,0.5-0.6,0.9-1
	s1.2-0.9,2.4-1.6c1.2-0.7,2.3-1,3.2-1s1.7,0,2.3,0.1C59.1,40.6,59.8,40.8,60.5,41z"/>
<path class="st0" d="M96.6,52.6c0,2.4-0.6,4.2-1.8,5.4c-1.2,1.2-2.5,1.7-4,1.7h-14c0,1.1,0.7,2,2,2.8c1.3,0.7,2.6,1.1,3.9,1.1
	c2.3,0,4.1-0.2,5.4-0.7l0.7-0.2c0.9-0.4,1.7-0.7,2.4-0.7c1.3,0,2.3,0.9,3.3,2.7c0.5,1.1,0.8,2,0.8,2.7c0,3.5-4.2,5.3-12.6,5.3
	c-2.9,0-5.5-0.5-7.8-1.5s-4-2.3-5.3-4c-2.5-3.2-3.7-6.8-3.7-10.7c0-5,1.6-8.9,4.8-11.9c3.2-3,7.2-4.5,12-4.5C88,40,92,42,94.6,45.8
	C95.9,47.9,96.6,50.1,96.6,52.6z M84.1,54.3c1.5,0,2.2-0.6,2.2-1.9c0-0.9-0.3-1.6-1-2.2c-0.7-0.6-1.7-0.8-3-0.8s-2.6,0.5-3.8,1.6
	c-1.3,1-1.9,2.2-1.9,3.3C76.6,54.3,84.1,54.3,84.1,54.3z"/>
<path class="st0" d="M120.9,51.2l-3.8-0.2v8.2c0,1.1,0.2,1.8,0.5,2.3s1,0.7,1.9,0.7s1.6,0,2.1,0.1s1,0.2,1.6,0.6
	c0.9,0.5,1.4,1.8,1.4,4c0,2.5-0.6,4-1.7,4.6c-0.6,0.3-1.1,0.4-1.6,0.5c-0.5,0.1-1.1,0.1-2,0.1c-4.1,0-7.2-0.9-9.3-2.8
	c-2.1-1.9-3.2-5-3.2-9.4v-8.8c-0.7,0.1-1.6,0.2-2.4,0.2c-0.9,0-1.6-0.3-2.2-1s-0.9-1.8-0.9-3.4c0-1.6,0.1-2.8,0.3-3.5
	c0.2-0.7,0.5-1.3,0.8-1.6c0.6-0.5,1.4-0.8,2.4-0.8l2,0.2V35c0-0.9,0-1.6,0.1-2s0.2-0.9,0.6-1.4c0.5-1,2-1.5,4.6-1.5
	c2.7,0,4.3,0.7,4.8,2.2c0.2,0.6,0.3,1.6,0.3,3V41c1.7-0.2,3-0.2,3.9-0.2s1.6,0,2,0.1c0.5,0.1,1,0.2,1.6,0.6c1,0.5,1.5,2,1.5,4.6
	c0,2.5-0.5,4-1.6,4.6c-0.6,0.3-1.1,0.4-1.6,0.5C122.5,51.1,121.8,51.2,120.9,51.2z"/>
<path class="st0" d="M164.4,37.3c1,2.1,1.5,4.4,1.5,7s-0.5,4.9-1.5,7s-2.3,3.7-4,4.9c-3.3,2.5-6.7,3.8-10.2,3.8h-7.4v6.7
	c0,0.9,0,1.6-0.1,2c-0.1,0.5-0.2,1-0.6,1.6c-0.6,1.1-2.1,1.6-4.6,1.6c-2.8,0-4.4-0.7-4.9-2.2c-0.2-0.7-0.4-1.7-0.4-3.1V33.7
	c0-0.9,0-1.6,0.1-2c0.1-0.5,0.2-1,0.6-1.6c0.6-1.1,2.1-1.6,4.6-1.6h12.7c3.5,0,6.8,1.3,10.1,3.8C162,33.5,163.3,35.2,164.4,37.3z
	 M153.8,48.1c1.1-0.9,1.7-2.2,1.7-3.9s-0.6-3-1.7-3.9c-1.1-0.9-2.3-1.3-3.5-1.3h-7.4v10.5h7.5C151.5,49.4,152.6,49,153.8,48.1z"/>
<path class="st0" d="M173.8,44.6c3.3-3.1,7.1-4.6,11.4-4.6c4.3,0,8,1.5,11.3,4.6s4.9,7,4.9,11.7c0,3.3-0.8,6.2-2.5,8.7
	s-3.8,4.4-6.2,5.6c-2.4,1.2-4.9,1.8-7.5,1.8s-5.1-0.6-7.6-1.9c-2.4-1.3-4.5-3.2-6.2-5.7s-2.5-5.3-2.5-8.5
	C168.8,51.6,170.5,47.7,173.8,44.6z M181.2,60.5c1.3,1,2.5,1.4,3.8,1.4s2.6-0.5,3.9-1.5c1.3-1,2-2.4,2-4.4s-0.6-3.4-1.8-4.3
	c-1.2-0.9-2.5-1.4-4-1.4s-2.7,0.5-4,1.5c-1.2,1-1.8,2.4-1.8,4.3S179.9,59.6,181.2,60.5z"/>
<path class="st0" d="M219,71.7c-4,0-7.3-1.5-9.9-4.5c-2.6-3-3.9-6.7-3.9-11V45.8c0-0.9,0-1.6,0.1-2.1c0.1-0.4,0.2-0.9,0.5-1.5
	c0.6-1.1,2.1-1.6,4.6-1.6c2.8,0,4.4,0.7,4.9,2.2c0.2,0.6,0.4,1.6,0.4,3v10.4c0,1.6,0.5,2.9,1.4,3.8c0.9,0.9,2.2,1.4,3.7,1.4
	c1.6,0,2.8-0.5,3.8-1.4s1.4-2.2,1.4-3.7V45.8c0-0.9,0-1.6,0.1-2c0.1-0.5,0.2-1,0.6-1.6c0.5-1,2-1.5,4.6-1.5c2.5,0,4,0.5,4.6,1.6
	c0.3,0.6,0.4,1.1,0.5,1.6s0.1,1.1,0.1,2v20.9c0,0.9,0,1.5-0.1,2s-0.2,1-0.6,1.5c-0.6,1-2.1,1.5-4.6,1.5c-2.4,0-3.9-0.5-4.4-1.4
	c-0.4-0.7-0.6-1.5-0.6-2.4c-0.2,0.3-0.5,0.7-1.1,1.2s-1.1,0.9-1.6,1.3C222,71.3,220.6,71.7,219,71.7z"/>
<path class="st0" d="M264.1,41c0.7,0.2,1.4,0.6,1.9,1.2c0.5,0.6,0.7,1.5,0.7,2.8s-0.4,2.6-1.1,4.1c-0.8,1.5-1.8,2.2-3.3,2.2
	c-0.7,0-1.4-0.2-2-0.5c-0.7-0.3-1.5-0.5-2.6-0.5s-2.1,0.4-3,1.1c-0.9,0.8-1.4,1.7-1.4,2.7v12.4c0,0.9,0,1.6-0.1,2s-0.2,1-0.6,1.6
	c-0.6,1-2.1,1.5-4.6,1.5c-1.9,0-3.3-0.3-4.1-1c-0.6-0.6-1-1.4-1.1-2.5c0-0.4,0-1,0-1.7V45.8c0-0.9,0-1.6,0.1-2
	c0.1-0.5,0.2-1,0.5-1.5c0.6-1.1,2.1-1.6,4.6-1.6c2.4,0,3.8,0.5,4.4,1.4c0.4,0.6,0.7,1.3,0.7,2c0.2-0.3,0.5-0.6,0.9-1
	s1.2-0.9,2.4-1.6c1.2-0.7,2.3-1,3.2-1s1.7,0,2.3,0.1C262.7,40.6,263.4,40.8,264.1,41z"/>
<path class="st1" d="M270.1,28.4H303c1.3,0,2.2,0.1,2.8,0.4c0.6,0.3,1,0.8,1.2,1.4s0.3,1.5,0.3,2.5c0,1-0.1,1.8-0.3,2.5
	c-0.2,0.6-0.5,1-1,1.3c-0.7,0.4-1.7,0.5-3,0.5h-11.3v29.8c0,0.9,0,1.6-0.1,2s-0.2,0.9-0.5,1.5s-0.8,1-1.6,1.2
	c-0.7,0.2-1.7,0.4-3,0.4c-1.2,0-2.2-0.1-2.9-0.4c-0.7-0.2-1.2-0.6-1.5-1.2s-0.5-1.1-0.5-1.5s-0.1-1.1-0.1-2V37H270
	c-1.3,0-2.2-0.1-2.8-0.4c-0.6-0.3-1-0.8-1.2-1.4s-0.3-1.5-0.3-2.5s0.1-1.8,0.3-2.5c0.2-0.6,0.5-1,1-1.3
	C267.7,28.6,268.8,28.4,270.1,28.4z"/>
<path class="st1" d="M335,60.5l1.1-0.8c1.3-0.8,2.3-1.2,2.8-1.2c1.2,0,2.5,1.1,4,3.3c0.9,1.4,1.3,2.5,1.3,3.3s-0.3,1.5-0.8,2.1
	s-1.2,1-1.9,1.5c-0.7,0.4-1.4,0.8-2,1.2c-0.7,0.4-2,0.9-4,1.5c-2,0.6-4,0.9-5.8,0.9s-3.8-0.2-5.7-0.7c-1.9-0.5-3.9-1.3-5.9-2.5
	s-3.9-2.6-5.5-4.3c-1.6-1.7-2.9-3.8-4-6.4c-1-2.6-1.6-5.5-1.6-8.5s0.5-5.9,1.5-8.4c1-2.5,2.3-4.6,3.9-6.2s3.4-3,5.5-4.1
	c3.9-2.1,7.8-3.2,11.7-3.2c1.9,0,3.7,0.3,5.6,0.9s3.4,1.2,4.3,1.7l1.4,0.8c0.7,0.4,1.3,0.8,1.7,1.1c1,0.8,1.5,1.8,1.5,2.8
	s-0.4,2.1-1.2,3.3c-1.5,2.1-2.9,3.2-4.1,3.2c-0.7,0-1.7-0.4-3-1.3c-1.7-1.3-3.9-2-6.6-2c-2.6,0-5.1,0.9-7.6,2.7
	c-1.2,0.9-2.2,2.1-3,3.7c-0.8,1.6-1.2,3.4-1.2,5.4s0.4,3.8,1.2,5.4c0.8,1.6,1.8,2.8,3,3.7c2.4,1.7,4.9,2.6,7.5,2.6
	c1.2,0,2.4-0.2,3.5-0.5C333.7,61.1,334.5,60.8,335,60.5z"/>
<path class="st1" d="M379.7,28.5c0.9,0,1.6,0,2,0.1s1,0.2,1.5,0.6c0.6,0.3,1,0.8,1.2,1.6c0.2,0.7,0.4,1.8,0.4,3c0,1.3-0.1,2.3-0.4,3
	c-0.2,0.8-0.7,1.3-1.2,1.6s-1.1,0.5-1.6,0.5c-0.5,0.1-1.2,0.1-2.1,0.1h-18.1v6h11.7c0.9,0,1.6,0,2.1,0.1s1,0.2,1.6,0.6
	c1,0.6,1.5,2.2,1.5,4.7c0,2.8-0.8,4.4-2.2,4.9c-0.6,0.2-1.6,0.3-3,0.3h-11.6v11.2c0,0.9,0,1.6-0.1,2.1c-0.1,0.4-0.2,0.9-0.6,1.5
	c-0.6,1.1-2.1,1.6-4.6,1.6c-2.8,0-4.4-0.7-4.9-2.2c-0.2-0.6-0.4-1.6-0.4-3V33.7c0-2,0.4-3.4,1.1-4.1s2.2-1.1,4.3-1.1H379.7z"/>
<path class="st0" d="M450.5,5.6h-25.4c-18.2,0-33,14.8-33,33v9.7c0,7.3,2.4,14.4,6.9,20.2l-6.8,25.1c-0.3,1,0.1,2.1,0.9,2.8
	c0.5,0.4,1.1,0.6,1.7,0.6c0.4,0,0.8-0.1,1.2-0.3l29.8-15.4h9.5V67.7h-0.1c-5.2,0.6-9.9,1.2-15.1,1.8l1.3-4.5
	c0.2-0.8-0.1-1.7-0.7-2.2L405.6,50l3.2-1.5c1.3-0.6,0.9-1.4,0.5-3.3l-2.4-8.8l8.8,1.9c0.9,0.2,1.5-0.4,1.6-0.9l1.1-4.2l7,8.2
	c0.9,1.3,2.9,1.3,2.3-1.7l-2.9-16.5l3.9,2.2c1.1,0.6,2.3,0.7,2.9-0.4l5.5-10.8l5.5,10.8c0,0,1.7,1,2.8,0.4l4-2.2l-3,16.5
	c-0.6,3,1.4,3,2.4,1.7l7-8.2l1.1,4.2c0.1,0.5,0.7,1.1,1.5,0.9l8.8-1.9l-2.3,8.8c-0.5,1.9-0.9,2.7,0.5,3.3l3.1,1.5l-15.1,12.8
	c-0.6,0.5-0.9,1.4-0.7,2.2l1.4,4.5c-5.2-0.6-9.9-1.2-15.1-1.8h-0.1v13.6h11.6c18.2,0,33-14.8,33-33v-9.7
	C483.5,20.4,468.7,5.6,450.5,5.6z"/>
</svg>
